ffmpeg started on 2016-11-28 at 05:02:44
Report written to "Output/NVENCh264/results/ffmpeg/crowd_run_2160p50llhp10000k.log"
Command line:
Tools/ffmpeg/ffmpeg -benchmark -y -i Input/y4m/crowd_run_2160p50.y4m -c:v h264_nvenc -preset llhp -b:v 10000k -an Output/NVENCh264/encoded/crowd_run_2160p50llhp10000k.mkv
ffmpeg version N-82227-gdb23fde Copyright (c) 2000-2016 the FFmpeg developers
  built with gcc 5.4.0 (Ubuntu 5.4.0-6ubuntu1~16.04.2) 20160609
  configuration: --prefix=/home/jaroslav/ffmpeg_build --pkg-config-flags=--static --extra-cflags=-I/home/jaroslav/ffmpeg_build/include --extra-ldflags=-L/home/jaroslav/ffmpeg_build/lib --bindir=/home/jaroslav/bin --enable-gpl --enable-libass --enable-libfdk-aac --enable-libfreetype --enable-libmp3lame --enable-libopus --enable-libtheora --enable-libvorbis --enable-libvpx --enable-libx264 --enable-libx265 --enable-nvenc --enable-libmfx --enable-libxvid --enable-libgsm --enable-libopencore-amrnb --enable-version3 --enable-nonfree
  libavutil      55. 35.100 / 55. 35.100
  libavcodec     57. 66.101 / 57. 66.101
  libavformat    57. 57.100 / 57. 57.100
  libavdevice    57.  2.100 / 57.  2.100
  libavfilter     6. 66.100 /  6. 66.100
  libswscale      4.  3.100 /  4.  3.100
  libswresample   2.  4.100 /  2.  4.100
  libpostproc    54.  2.100 / 54.  2.100
Input #0, yuv4mpegpipe, from 'Input/y4m/crowd_run_2160p50.y4m':
  Duration: 00:00:10.00, start: 0.000000, bitrate: 4976642 kb/s
    Stream #0:0: Video: rawvideo (I420 / 0x30323449), yuv420p(progressive), 3840x2160, SAR 1:1 DAR 16:9, 50 fps, 50 tbr, 50 tbn, 50 tbc
[h264_nvenc @ 0x45df1c0] The variable bitrate rate-control requires the 'qmin' and/or 'qmax' option set.
Output #0, matroska, to 'Output/NVENCh264/encoded/crowd_run_2160p50llhp10000k.mkv':
  Metadata:
    encoder         : Lavf57.57.100
    Stream #0:0: Video: h264 (h264_nvenc) (Main) (H264 / 0x34363248), yuv420p, 3840x2160 [SAR 1:1 DAR 16:9], q=-1--1, 10000 kb/s, 50 fps, 1k tbn, 50 tbc
    Metadata:
      encoder         : Lavc57.66.101 h264_nvenc
    Side data:
      cpb: bitrate max/min/avg: 0/0/10000000 buffer size: 20000000 vbv_delay: -1
Stream mapping:
  Stream #0:0 -> #0:0 (rawvideo (native) -> h264 (h264_nvenc))
Press [q] to stop, [?] for help
frame=   14 fps=0.0 q=0.0 size=       0kB time=00:00:00.00 bitrate=N/A speed=   0x    frame=   28 fps= 27 q=0.0 size=       0kB time=00:00:00.00 bitrate=N/A speed=   0x    frame=   44 fps= 29 q=43.0 size=       1kB time=00:00:00.26 bitrate=  22.9kbits/s speed=0.17x    frame=   62 fps= 30 q=43.0 size=       1kB time=00:00:00.62 bitrate=   9.6kbits/s speed=0.302x    frame=   80 fps= 31 q=44.0 size=       1kB time=00:00:00.98 bitrate=   6.1kbits/s speed=0.381x    frame=   98 fps= 32 q=43.0 size=       1kB time=00:00:01.34 bitrate=   4.5kbits/s speed=0.434x    frame=  115 fps= 32 q=43.0 size=       1kB time=00:00:01.68 bitrate=   3.6kbits/s speed=0.468x    frame=  133 fps= 32 q=43.0 size=       1kB time=00:00:02.04 bitrate=   2.9kbits/s speed=0.497x    frame=  142 fps= 20 q=43.0 size=       1kB time=00:00:02.22 bitrate=   2.7kbits/s speed=0.305x    frame=  143 fps= 16 q=43.0 size=       1kB time=00:00:02.24 bitrate=   2.7kbits/s speed=0.258x    frame=  160 fps= 17 q=43.0 size=       1kB time=00:00:02.58 bitrate=   2.3kbits/s speed=0.28x    frame=  177 fps= 18 q=43.0 size=       1kB time=00:00:02.92 bitrate=   2.0kbits/s speed=0.301x    frame=  194 fps= 19 q=44.0 size=       1kB time=00:00:03.26 bitrate=   1.8kbits/s speed=0.319x    frame=  211 fps= 20 q=43.0 size=       1kB time=00:00:03.60 bitrate=   1.7kbits/s speed=0.335x    frame=  228 fps= 20 q=43.0 size=       1kB time=00:00:03.94 bitrate=   1.5kbits/s speed=0.351x    frame=  245 fps= 21 q=43.0 size=    5142kB time=00:00:04.28 bitrate=9839.0kbits/s speed=0.364x    frame=  263 fps= 21 q=43.0 size=    5142kB time=00:00:04.64 bitrate=9075.8kbits/s speed=0.378x    frame=  281 fps= 22 q=39.0 size=    6139kB time=00:00:05.00 bitrate=10055.9kbits/s speed=0.391x    frame=  299 fps= 22 q=43.0 size=    6139kB time=00:00:05.36 bitrate=9380.7kbits/s speed=0.402x    frame=  317 fps= 23 q=43.0 size=    6139kB time=00:00:05.72 bitrate=8790.4kbits/s speed=0.413x    frame=  335 fps= 23 q=43.0 size=    6139kB time=00:00:06.08 bitrate=8270.0kbits/s speed=0.423x    frame=  353 fps= 24 q=44.0 size=    6139kB time=00:00:06.44 bitrate=7807.8kbits/s speed=0.433x    frame=  371 fps= 24 q=43.0 size=    6139kB time=00:00:06.80 bitrate=7394.5kbits/s speed=0.441x    frame=  389 fps= 24 q=43.0 size=    6139kB time=00:00:07.16 bitrate=7022.7kbits/s speed=0.45x    frame=  407 fps= 25 q=43.0 size=    6139kB time=00:00:07.52 bitrate=6686.6kbits/s speed=0.457x    frame=  425 fps= 25 q=43.0 size=    6139kB time=00:00:07.88 bitrate=6381.1kbits/s speed=0.465x    frame=  443 fps= 25 q=43.0 size=    6139kB time=00:00:08.24 bitrate=6102.4kbits/s speed=0.472x    frame=  461 fps= 26 q=43.0 size=    6139kB time=00:00:08.60 bitrate=5847.0kbits/s speed=0.478x    frame=  479 fps= 26 q=43.0 size=    6139kB time=00:00:08.96 bitrate=5612.1kbits/s speed=0.485x    frame=  497 fps= 26 q=43.0 size=   11282kB time=00:00:09.32 bitrate=9915.2kbits/s speed=0.49x    frame=  500 fps= 26 q=44.0 Lsize=   12255kB time=00:00:09.98 bitrate=10058.8kbits/s speed=0.521x    
video:12251kB audio:0kB subtitle:0kB other streams:0kB global headers:0kB muxing overhead: 0.038845%
bench: utime=1.132s
bench: maxrss=1397244kB
